# xmcd CD database file
#
# Track frame offsets:
#	150
#	12820
#	26055
#	40545
#	54362
#	68962
#	80715
#	97155
#	110147
#	130297
#	144722
#	161855
#	175425
#	190467
#	202285
#	217215
#	229452
#	244440
#	260655
#
# Disc length: 3645 seconds
#
# Revision: 3
# Processed by: cddbd v1.5.2PL0 Copyright (c) Steve Scherf et al.
# Submitted via: CDex 1.51
#
DISCID=370e3b13
DTITLE=Sam Taylor Bes - Best Of Sam Taylor
DYEAR=1987
DGENRE=Jazz
TTITLE0=Harlem Nocturne
TTITLE1=Danny Boy
TTITLE2=Red Sails In The Sunset
TTITLE3=Star Dust
TTITLE4=Smoke Gets In Your Eyes
TTITLE5=Summer Time
TTITLE6=Ebb Tide
TTITLE7=ST.Louis Blue
TTITLE8=Feelings
TTITLE9=I Left My Heart In Sanfrancisco
TTITLE10=My Way
TTITLE11=La Reine De Saba
TTITLE12=Only You
TTITLE13=Georgia On My MInd
TTITLE14=Till
TTITLE15=Broken Promises
TTITLE16=Moon River
TTITLE17=The Last Waltz
TTITLE18=Love Is A Many Splendored Thing
EXTD=YEAR: 1987
EXTT0=
EXTT1=
EXTT2=
EXTT3=
EXTT4=
EXTT5=
EXTT6=
EXTT7=
EXTT8=
EXTT9=
EXTT10=
EXTT11=
EXTT12=
EXTT13=
EXTT14=
EXTT15=
EXTT16=
EXTT17=
EXTT18=
PLAYORDER=
